<svg width="268" height="24" viewBox="0 0 268 24" fill="none" xmlns="http://www.w3.org/2000/svg">
<g>
<path d="M51.6838 22.3943L50.0775 18.4386H40.6156L39.0094 22.3943H34.2492L43.127 2.03418H47.8872L56.6191 22.3943H51.6838ZM42.1342 14.7447H48.5881L45.3759 6.83335L42.1342 14.7447Z" fill="white"/>
<path d="M62.4384 13.9885C62.4384 15.4427 62.8473 16.5965 63.665 17.4497C64.502 18.2835 65.6116 18.7004 66.994 18.7004C68.3374 18.7004 69.4082 18.2835 70.2066 17.4497C71.0046 16.6159 71.404 15.4622 71.404 13.9885V2.03418H76.0178V13.9885C76.0178 15.7724 75.6479 17.3237 74.9081 18.6422C74.1881 19.9414 73.1465 20.9497 71.7833 21.6672C70.4206 22.3652 68.8144 22.7142 66.9649 22.7142C65.1154 22.7142 63.4993 22.3652 62.1169 21.6672C60.735 20.9497 59.6737 19.9414 58.9339 18.6422C58.1941 17.3237 57.8242 15.7724 57.8242 13.9885V2.03418H62.4384V13.9885Z" fill="white"/>
<path d="M78.1477 2.03418H95.2321V5.93168H88.9824V22.3943H84.3682V5.93168H78.1477V2.03418Z" fill="white"/>
<path d="M106.11 1.71387C108.155 1.71387 110.014 2.16955 111.688 3.0809C113.363 3.99226 114.677 5.25267 115.631 6.86208C116.604 8.45208 117.091 10.2263 117.091 12.1848C117.091 14.1432 116.604 15.9272 115.631 17.5366C114.677 19.146 113.363 20.4161 111.688 21.3469C110.014 22.2582 108.155 22.7139 106.11 22.7139C104.066 22.7139 102.207 22.2582 100.533 21.3469C98.8582 20.4161 97.5344 19.1557 96.5609 17.5657C95.6066 15.9562 95.1297 14.1626 95.1297 12.1848C95.1297 10.2263 95.6066 8.45208 96.5609 6.86208C97.5344 5.25267 98.8483 3.99226 100.503 3.0809C102.178 2.16955 104.046 1.71387 106.11 1.71387ZM106.169 5.72774C105.04 5.72774 103.988 6.01857 103.015 6.60031C102.041 7.16264 101.272 7.93822 100.708 8.92715C100.143 9.91608 99.8608 11.002 99.8608 12.1848C99.8608 13.387 100.143 14.4826 100.708 15.4715C101.292 16.4604 102.061 17.2457 103.015 17.8274C103.988 18.4092 105.04 18.7 106.169 18.7C107.298 18.7 108.33 18.4189 109.264 17.8565C110.218 17.2748 110.968 16.4895 111.513 15.5006C112.078 14.4923 112.36 13.387 112.36 12.1848C112.36 11.002 112.078 9.91608 111.513 8.92715C110.968 7.93822 110.218 7.16264 109.264 6.60031C108.33 6.01857 107.298 5.72774 106.169 5.72774Z" fill="white"/>
<path d="M128.792 2.03418C130.875 2.03418 132.735 2.47047 134.37 3.34304C136.005 4.19623 137.271 5.39845 138.166 6.94971C139.081 8.48155 139.539 10.2364 139.539 12.2142C139.539 14.1921 139.071 15.9566 138.137 17.5079C137.222 19.0397 135.937 20.2419 134.282 21.1145C132.627 21.9677 130.739 22.3943 128.616 22.3943H120.118V2.03418H128.792ZM128.909 18.5258C130.038 18.5258 131.05 18.2641 131.946 17.7405C132.861 17.1976 133.571 16.4511 134.078 15.5009C134.584 14.5508 134.837 13.4649 134.837 12.2433C134.837 11.0217 134.564 9.92613 134.019 8.95662C133.494 7.9871 132.764 7.24053 131.829 6.71699C130.914 6.17408 129.873 5.90262 128.704 5.90262H124.733V18.5258H128.909Z" fill="white"/>
<path d="M151.57 1.71387C153.614 1.71387 155.474 2.16955 157.148 3.0809C158.822 3.99226 160.136 5.25267 161.091 6.86208C162.064 8.45208 162.551 10.2263 162.551 12.1848C162.551 14.1432 162.064 15.9272 161.091 17.5366C160.136 19.146 158.822 20.4161 157.148 21.3469C155.474 22.2582 153.614 22.7139 151.57 22.7139C149.526 22.7139 147.667 22.2582 145.992 21.3469C144.318 20.4161 142.994 19.1557 142.02 17.5657C141.066 15.9562 140.59 14.1626 140.59 12.1848C140.59 10.2263 141.066 8.45208 142.02 6.86208C142.994 5.25267 144.308 3.99226 145.963 3.0809C147.637 2.16955 149.506 1.71387 151.57 1.71387ZM151.628 5.72774C150.499 5.72774 149.448 6.01857 148.475 6.60031C147.501 7.16264 146.732 7.93822 146.167 8.92715C145.603 9.91608 145.321 11.002 145.321 12.1848C145.321 13.387 145.603 14.4826 146.167 15.4715C146.751 16.4604 147.52 17.2457 148.475 17.8274C149.448 18.4092 150.499 18.7 151.628 18.7C152.758 18.7 153.79 18.4189 154.724 17.8565C155.678 17.2748 156.428 16.4895 156.973 15.5006C157.537 14.4923 157.819 13.387 157.819 12.1848C157.819 11.002 157.537 9.91608 156.973 8.92715C156.428 7.93822 155.678 7.16264 154.724 6.60031C153.79 6.01857 152.758 5.72774 151.628 5.72774Z" fill="white"/>
<path d="M179.871 8.40361C179.17 7.56982 178.342 6.92024 177.389 6.45485C176.454 5.9701 175.51 5.72774 174.556 5.72774C173.407 5.72774 172.356 6.00888 171.402 6.57121C170.448 7.13354 169.698 7.89948 169.153 8.869C168.608 9.83851 168.336 10.9147 168.336 12.0975C168.336 13.2804 168.608 14.3662 169.153 15.3551C169.698 16.3247 170.448 17.1003 171.402 17.682C172.356 18.2443 173.407 18.5255 174.556 18.5255C175.471 18.5255 176.396 18.3122 177.33 17.8856C178.284 17.4396 179.131 16.8482 179.871 16.1114L182.587 19.0491C181.497 20.1737 180.212 21.0657 178.732 21.7249C177.272 22.3842 175.802 22.7139 174.322 22.7139C172.317 22.7139 170.496 22.2582 168.861 21.3469C167.226 20.4161 165.941 19.146 165.006 17.5366C164.072 15.9272 163.605 14.1335 163.605 12.1557C163.605 10.1973 164.082 8.42302 165.035 6.83298C165.99 5.24294 167.294 3.99226 168.949 3.0809C170.623 2.16955 172.473 1.71387 174.498 1.71387C175.977 1.71387 177.437 2.02412 178.878 2.64462C180.319 3.24572 181.545 4.06982 182.558 5.1169L179.871 8.40361Z" fill="white"/>
<path d="M206.993 8.40361C206.292 7.56982 205.464 6.92024 204.511 6.45485C203.576 5.9701 202.632 5.72774 201.678 5.72774C200.529 5.72774 199.478 6.00888 198.524 6.57121C197.57 7.13354 196.82 7.89948 196.275 8.869C195.73 9.83851 195.457 10.9147 195.457 12.0975C195.457 13.2804 195.73 14.3662 196.275 15.3551C196.82 16.3247 197.57 17.1003 198.524 17.682C199.478 18.2443 200.529 18.5255 201.678 18.5255C202.593 18.5255 203.517 18.3122 204.452 17.8856C205.406 17.4396 206.253 16.8482 206.993 16.1114L209.709 19.0491C208.618 20.1737 207.334 21.0657 205.854 21.7249C204.394 22.3842 202.924 22.7139 201.444 22.7139C199.439 22.7139 197.618 22.2582 195.983 21.3469C194.348 20.4161 193.063 19.146 192.128 17.5366C191.194 15.9272 190.726 14.1335 190.726 12.1557C190.726 10.1973 191.203 8.42302 192.157 6.83298C193.111 5.24294 194.416 3.99226 196.071 3.0809C197.745 2.16955 199.594 1.71387 201.619 1.71387C203.099 1.71387 204.559 2.02412 206 2.64462C207.441 3.24572 208.667 4.06982 209.68 5.1169L206.993 8.40361Z" fill="#F85A00"/>
<path d="M212.464 2.03418H217.078V18.3804H225.839V22.3943H212.464V2.03418Z" fill="#F85A00"/>
<path d="M232.841 13.9885C232.841 15.4427 233.249 16.5965 234.067 17.4497C234.905 18.2835 236.014 18.7004 237.397 18.7004C238.74 18.7004 239.811 18.2835 240.609 17.4497C241.407 16.6159 241.806 15.4622 241.806 13.9885V2.03418H246.42V13.9885C246.42 15.7724 246.051 17.3237 245.311 18.6422C244.59 19.9414 243.549 20.9497 242.186 21.6672C240.823 22.3652 239.217 22.7142 237.367 22.7142C235.518 22.7142 233.902 22.3652 232.52 21.6672C231.137 20.9497 230.076 19.9414 229.336 18.6422C228.597 17.3237 228.226 15.7724 228.226 13.9885V2.03418H232.841V13.9885Z" fill="#F85A00"/>
<path d="M259.969 2.03418C262.227 2.03418 264.009 2.48986 265.313 3.40122C266.618 4.31258 267.27 5.55355 267.27 7.12422C267.27 8.21009 266.949 9.16023 266.306 9.97461C265.683 10.7696 264.826 11.3126 263.736 11.6034C265.06 11.8555 266.102 12.4469 266.861 13.3777C267.62 14.289 268 15.4137 268 16.7516C268 18.4968 267.309 19.8735 265.927 20.8818C264.544 21.8901 262.665 22.3943 260.29 22.3943H250.565V2.03418H259.969ZM259.735 10.2364C260.612 10.2364 261.293 10.0425 261.779 9.65468C262.286 9.24749 262.539 8.68516 262.539 7.96769C262.539 7.26963 262.286 6.72672 261.779 6.33891C261.293 5.95109 260.612 5.76685 259.735 5.78626H255.18V10.2364H259.735ZM259.735 18.6422C260.826 18.6422 261.682 18.4289 262.305 18.0023C262.928 17.5563 263.24 16.9455 263.24 16.1699C263.24 15.4331 262.928 14.8514 262.305 14.4248C261.682 13.9982 260.826 13.7945 259.735 13.814H255.18V18.6422H259.735Z" fill="#F85A00"/>
<path fill-rule="evenodd" clip-rule="evenodd" d="M6.59982 16.1147C7.4662 16.1147 8.16852 16.8387 8.16852 17.7319V24.0001H15.067L15.067 10.6778C15.067 9.78466 14.3647 9.06055 13.4983 9.06055H0V16.1146L6.59982 16.1147Z" fill="#F85A00"/>
<path fill-rule="evenodd" clip-rule="evenodd" d="M17.3746 7.88541C16.5082 7.88541 15.8059 7.16134 15.8059 6.26816V0H8.90751L8.90747 13.3222C8.90747 14.2154 9.60979 14.9395 10.4762 14.9395H23.9745V7.88541H17.3746Z" fill="white"/>
</g>
</svg>
